<svg width="50" height="39" viewBox="0 0 50 39" fill="none" xmlns="http://www.w3.org/2000/svg">
<g clip-path="url(#clip0_85_23)">
<path d="M42.2625 8.94285H33.8714C33.7113 6.59231 31.777 4.7416 29.4157 4.7416H21.3581C19.1969 1.86422 15.7684 0 11.8997 0C5.33618 0 0 5.40353 0 12.0499C0 14.495 0.720384 16.7645 1.96105 18.6692V27.3284C1.96105 30.1787 4.21558 32.4887 7.01708 32.5428C7.00374 32.6914 7.00374 32.84 7.00374 33.0021C7.00374 36.3117 9.65849 39 12.9269 39C16.1953 39 18.8501 36.3117 18.8501 33.0021C18.8501 32.8535 18.8501 32.6914 18.8367 32.5428H28.6419C28.6419 32.5428 30.0827 32.5563 32.1505 32.5698C32.1371 32.7184 32.1371 32.8535 32.1371 33.0021C32.1371 36.3117 34.7919 39 38.0603 39C41.3287 39 43.9835 36.3117 43.9835 33.0021C43.9835 32.867 43.9835 32.7319 43.9701 32.5968C45.3842 32.5968 46.4248 32.5698 46.7983 32.5563C48.5726 32.4482 49.0128 29.9761 49.0128 29.9761V22.0194L42.2625 8.94285ZM12.7401 35.2851C11.1793 35.2851 9.91195 34.0017 9.91195 32.4212C9.91195 30.8407 11.1793 29.5573 12.7401 29.5573C14.301 29.5573 15.5683 30.8407 15.5683 32.4212C15.5683 34.0017 14.301 35.2851 12.7401 35.2851ZM11.6062 20.2768C7.13714 20.2768 3.52188 16.6159 3.52188 12.0904C3.52188 7.56495 7.13714 3.90405 11.6062 3.90405C16.0752 3.90405 19.6905 7.56495 19.6905 12.0904C19.6905 16.6159 16.0752 20.2768 11.6062 20.2768ZM38.2471 35.2851C36.6862 35.2851 35.4189 34.0017 35.4189 32.4212C35.4189 30.8407 36.6862 29.5573 38.2471 29.5573C39.8079 29.5573 41.0752 30.8407 41.0752 32.4212C41.0619 34.0017 39.8079 35.2851 38.2471 35.2851ZM33.5112 22.0059V12.0904H39.928L44.4637 22.0059H33.5112Z" fill="white"/>
<path d="M14.3543 7.98371L11.6062 7.2002L9.92529 12.5902L12.7401 16.2916L15.5683 14.3869L13.2471 11.7392L14.3543 7.98371Z" fill="white"/>
</g>
<defs>
<clipPath id="clip0_85_23">
<rect width="50" height="39" fill="white"/>
</clipPath>
</defs>
</svg>
