<svg width="50" height="40" viewBox="0 0 50 40" fill="none" xmlns="http://www.w3.org/2000/svg">
<path d="M0.821167 37.3114V18.4163C0.821167 18.4163 2.9927 11.4182 10.2737 10.2764V23.7939C10.2737 23.7939 10.9124 25.1751 12.6095 24.1254C13.9964 23.2598 19.4891 19.5581 21.4416 18.2322C21.9708 17.8823 22.5912 17.6981 23.2117 17.7165C24.708 17.7718 27.1898 18.3795 26.6058 21.7497C26.4781 22.5047 26.1131 23.2045 25.6022 23.757L12.865 37.3114C12.865 37.3114 11.4964 38.5268 9.70803 38.6926C7.91971 38.8583 2.28102 38.6926 2.28102 38.6926C2.28102 38.6926 1.29562 38.4532 0.821167 37.3114Z" fill="white"/>
<path d="M14.8723 38.766L23.9964 28.7476H32.9562L26.6971 35.9115C26.6971 35.9115 24.0876 38.4161 22.4635 38.7476C20.8394 39.1159 14.8723 38.766 14.8723 38.766Z" fill="white"/>
<path d="M12.6825 20.9393V9.94482H47.5547V23.1492C47.5547 23.1492 46.4963 26.3352 44.0876 26.5747C41.6788 26.8141 26.6788 26.5747 26.6788 26.5747L28.4489 24.291C28.9599 23.6465 29.2883 22.873 29.3796 22.0443C29.6533 19.8527 29.3066 15.8933 23.3212 15.3592C22.354 15.2671 21.3869 15.5065 20.5657 16.0222L12.6825 20.9393Z" fill="white"/>
<path d="M47.573 6.7586H12.6825C12.6825 3.83042 15.0365 1.47314 17.938 1.47314H42.3175C45.219 1.47314 47.573 3.83042 47.573 6.7586Z" fill="white"/>
</svg>
