<svg width="35" height="40" viewBox="0 0 35 40" fill="none" xmlns="http://www.w3.org/2000/svg">
<path d="M0 36.9371V16.1773C6.12108 15.1564 5.78102 13.4547 7.82138 10.3918C9.45367 7.9415 10.7686 2.56438 11.222 0.182114C14.9626 -0.838875 16.5269 2.63245 17.3431 5.6273C18.1592 8.62215 16.5496 13.001 15.6428 14.816H26.6256C30.3863 14.816 35.8224 15.5513 34.8329 19.1795C34.5305 20.2882 33.8732 21.3239 33.3259 21.9628C36.5905 24.6854 34.006 27.8618 32.3057 29.1096C34.21 33.1935 31.5122 35.122 29.9253 35.5758C30.4694 38.5706 28.7918 39.7731 27.8849 40H8.84156C6.39313 40 4.19408 37.9581 3.4006 36.9371H0Z" fill="white"/>
</svg>
