<svg width="50" height="53" viewBox="0 0 50 53" fill="none" xmlns="http://www.w3.org/2000/svg">
<path d="M33.6378 27.9331C33.8562 27.6563 33.9754 27.3598 33.9952 27.0039C34.0151 26.6481 33.9357 26.312 33.7967 25.976C33.6378 25.6399 33.4194 25.3434 33.1215 25.1061C32.8038 24.8491 32.4464 24.6712 32.089 24.5921C31.7315 24.5131 31.3741 24.5328 31.0564 24.6119C30.7387 24.7108 30.4805 24.8689 30.282 25.1061C30.0635 25.3829 29.9246 25.6794 29.9047 26.0155C29.865 26.3516 29.9245 26.6876 30.0834 27.0237C30.2423 27.3598 30.4607 27.6563 30.7784 27.9133C31.0961 28.1703 31.4337 28.3284 31.7911 28.4075C32.1485 28.4866 32.506 28.4866 32.8435 28.3877C33.1612 28.3482 33.4194 28.1901 33.6378 27.9331ZM33.6378 27.9331C33.8562 27.6563 33.9754 27.3598 33.9952 27.0039C34.0151 26.6481 33.9357 26.312 33.7967 25.976C33.6378 25.6399 33.4194 25.3434 33.1215 25.1061C32.8038 24.8491 32.4464 24.6712 32.089 24.5921C31.7315 24.5131 31.3741 24.5328 31.0564 24.6119C30.7387 24.7108 30.4805 24.8689 30.282 25.1061C30.0635 25.3829 29.9246 25.6794 29.9047 26.0155C29.865 26.3516 29.9245 26.6876 30.0834 27.0237C30.2423 27.3598 30.4607 27.6563 30.7784 27.9133C31.0961 28.1703 31.4337 28.3284 31.7911 28.4075C32.1485 28.4866 32.506 28.4866 32.8435 28.3877C33.1612 28.3482 33.4194 28.1901 33.6378 27.9331ZM47.0612 11.268C46.5846 7.37357 43.5068 4.30941 39.5949 3.83496L26.2113 3.9338L3.33599 26.7272C1.33043 28.7238 1.33043 31.9461 3.33599 33.9428L16.8586 47.4053C18.8642 49.4019 22.1009 49.4019 24.1064 47.4053L47.0016 24.6119L47.0612 11.268ZM35.8419 24.9282C36.0604 25.6003 36.1001 26.2923 35.9611 27.0237C35.8221 27.7354 35.4845 28.4075 34.9881 29.0401C34.4917 29.6727 33.8761 30.1076 33.201 30.3844C32.5258 30.6611 31.8308 30.76 31.116 30.6809C30.421 30.5821 29.7856 30.3251 29.2097 29.8506C28.6338 29.3762 28.2367 28.8029 27.9984 28.1505C27.7601 27.4784 27.7204 26.7865 27.8793 26.0748C28.0183 25.3434 28.3558 24.691 28.8523 24.0584C29.3686 23.4456 29.9643 22.9909 30.6394 22.7141C31.3145 22.4373 32.0095 22.3385 32.7244 22.4176C33.4392 22.4967 34.0747 22.7734 34.6307 23.2281C35.2264 23.6828 35.6235 24.2561 35.8419 24.9282ZM42.2558 9.13298C43.7649 10.6354 43.7649 13.0867 42.2558 14.5892C40.7466 16.0916 38.2844 16.0916 36.7752 14.5892C35.2661 13.0867 35.2661 10.6354 36.7752 9.13298C38.2844 7.61079 40.7268 7.61079 42.2558 9.13298ZM18.4075 31.274C17.7323 31.5507 17.0175 31.6694 16.3225 31.5903C15.6076 31.5112 14.9722 31.2344 14.3765 30.76C13.8006 30.3053 13.4234 29.732 13.2049 29.0401C12.9865 28.368 12.9468 27.6563 13.0858 26.9446C13.2248 26.2132 13.5425 25.5608 14.0389 24.948C14.5552 24.3154 15.1509 23.8607 15.8459 23.5839C16.5211 23.3072 17.2161 23.2083 17.9309 23.2874C18.6259 23.3862 19.2613 23.663 19.8372 24.1177C20.3932 24.5724 20.8102 25.1457 21.0485 25.8178C21.2867 26.4899 21.3265 27.1818 21.1875 27.9133C21.0485 28.6447 20.7109 29.3169 20.1946 29.9495C19.6783 30.5425 19.1025 30.9774 18.4075 31.274ZM25.6751 38.0349L23.7689 27.0435L21.247 16.2695L23.3916 15.9334L25.278 26.7074L27.7601 37.7186L25.6751 38.0349ZM29.8848 26.055C29.8451 26.3911 29.9047 26.7272 30.0635 27.0632C30.2224 27.3993 30.4408 27.6958 30.7585 27.9528C31.0763 28.2098 31.4138 28.368 31.7713 28.447C32.1287 28.5261 32.4861 28.5261 32.8237 28.4273C33.1612 28.3482 33.4392 28.1703 33.6378 27.9133C33.8562 27.6365 33.9754 27.34 33.9952 26.9842C34.0151 26.6283 33.9357 26.2923 33.7967 25.9562C33.6378 25.6201 33.4194 25.3236 33.1215 25.0864C32.8038 24.8294 32.4464 24.6514 32.089 24.5724C31.7315 24.4933 31.3741 24.5131 31.0564 24.5921C30.7387 24.691 30.4805 24.8491 30.282 25.0864C30.0437 25.4224 29.9047 25.719 29.8848 26.055ZM19.1422 27.9133C19.162 27.5575 19.1025 27.2214 18.9635 26.8853C18.8245 26.5492 18.606 26.2725 18.3082 26.0353C17.9905 25.7783 17.633 25.6003 17.2558 25.5213C16.8785 25.4422 16.5409 25.4422 16.2033 25.541C15.8856 25.6399 15.6076 25.8178 15.4091 26.0748C15.1906 26.3516 15.0715 26.6481 15.0516 26.9842C15.0318 27.3202 15.0913 27.6563 15.2502 27.9924C15.4091 28.3284 15.6275 28.625 15.9452 28.882C16.2629 29.139 16.6005 29.2971 16.9579 29.3762C17.3153 29.4553 17.6728 29.4553 18.0103 29.3564C18.3479 29.2576 18.606 29.0994 18.8046 28.8622C19.0032 28.5657 19.1223 28.2691 19.1422 27.9133ZM33.6378 27.9331C33.8562 27.6563 33.9754 27.3598 33.9952 27.0039C34.0151 26.6481 33.9357 26.312 33.7967 25.976C33.6378 25.6399 33.4194 25.3434 33.1215 25.1061C32.8038 24.8491 32.4464 24.6712 32.089 24.5921C31.7315 24.5131 31.3741 24.5328 31.0564 24.6119C30.7387 24.7108 30.4805 24.8689 30.282 25.1061C30.0635 25.3829 29.9246 25.6794 29.9047 26.0155C29.865 26.3516 29.9245 26.6876 30.0834 27.0237C30.2423 27.3598 30.4607 27.6563 30.7784 27.9133C31.0961 28.1703 31.4337 28.3284 31.7911 28.4075C32.1485 28.4866 32.506 28.4866 32.8435 28.3877C33.1612 28.3482 33.4194 28.1901 33.6378 27.9331ZM33.6378 27.9331C33.8562 27.6563 33.9754 27.3598 33.9952 27.0039C34.0151 26.6481 33.9357 26.312 33.7967 25.976C33.6378 25.6399 33.4194 25.3434 33.1215 25.1061C32.8038 24.8491 32.4464 24.6712 32.089 24.5921C31.7315 24.5131 31.3741 24.5328 31.0564 24.6119C30.7387 24.7108 30.4805 24.8689 30.282 25.1061C30.0635 25.3829 29.9246 25.6794 29.9047 26.0155C29.865 26.3516 29.9245 26.6876 30.0834 27.0237C30.2423 27.3598 30.4607 27.6563 30.7784 27.9133C31.0961 28.1703 31.4337 28.3284 31.7911 28.4075C32.1485 28.4866 32.506 28.4866 32.8435 28.3877C33.1612 28.3482 33.4194 28.1901 33.6378 27.9331Z" fill="white"/>
</svg>
