<svg width="50" height="39" fill="none" xmlns="http://www.w3.org/2000/svg"><path fill="#1E1E1E" d="M0 0h50v39H0z"/><path fill="#000" d="M-535-5548h1920v7672H-535z"/><path fill="#fff" d="M-535-462h1920v932H-535z"/><path fill="url(#a)" d="M-50-56h150V94H-50z"/><g clip-path="url(#b)" fill="#fff"><path d="M42.263 8.943H33.87c-.16-2.35-2.094-4.201-4.455-4.201h-8.058C19.197 1.864 15.768 0 11.9 0 5.336 0 0 5.404 0 12.05c0 2.445.72 4.715 1.961 6.62v8.658c0 2.85 2.255 5.16 5.056 5.215-.013.148-.013.297-.013.46 0 3.309 2.654 5.997 5.923 5.997 3.268 0 5.923-2.688 5.923-5.998 0-.149 0-.31-.013-.46h9.805s1.44.014 3.509.028c-.014.148-.014.283-.014.432 0 3.31 2.655 5.998 5.923 5.998 3.269 0 5.923-2.688 5.923-5.998 0-.135 0-.27-.013-.405 1.414 0 2.455-.027 2.828-.04 1.775-.109 2.215-2.58 2.215-2.58v-7.958l-6.75-13.076ZM12.74 35.285c-1.56 0-2.828-1.283-2.828-2.864 0-1.58 1.267-2.864 2.828-2.864s2.828 1.284 2.828 2.864c0 1.58-1.267 2.864-2.828 2.864Zm-1.134-15.008c-4.469 0-8.084-3.661-8.084-8.187 0-4.525 3.615-8.186 8.084-8.186 4.47 0 8.085 3.66 8.085 8.186s-3.616 8.187-8.085 8.187Zm26.641 15.008c-1.56 0-2.828-1.283-2.828-2.864 0-1.58 1.267-2.864 2.828-2.864 1.56 0 2.828 1.284 2.828 2.864-.013 1.58-1.267 2.864-2.828 2.864Zm-4.736-13.28V12.09h6.417l4.536 9.916H33.51Z"/><path d="M14.354 7.984 11.606 7.2l-1.68 5.39 2.814 3.702 2.828-1.905-2.32-2.648 1.106-3.755Z"/></g><defs><linearGradient id="a" x1="-50" y1="19" x2="100" y2="19" gradientUnits="userSpaceOnUse"><stop stop-color="#4E98B6"/><stop offset="1" stop-color="#00D589"/></linearGradient><clipPath id="b"><path fill="#fff" d="M0 0h50v39H0z"/></clipPath></defs></svg>