<svg width="50" height="53" fill="none" xmlns="http://www.w3.org/2000/svg"><path d="M33.638 27.933a1.59 1.59 0 0 0 .357-.93c.02-.355-.06-.691-.198-1.027a2.404 2.404 0 0 0-.675-.87 2.537 2.537 0 0 0-1.033-.514 2.267 2.267 0 0 0-1.033.02 1.59 1.59 0 0 0-.774.494c-.218.277-.357.573-.377.91-.04.336.02.672.178 1.008a2.506 2.506 0 0 0 1.708 1.383c.357.08.715.08 1.052-.02.318-.039.576-.197.795-.454Zm0 0a1.59 1.59 0 0 0 .357-.93c.02-.355-.06-.691-.198-1.027a2.404 2.404 0 0 0-.675-.87 2.537 2.537 0 0 0-1.033-.514 2.267 2.267 0 0 0-1.033.02 1.59 1.59 0 0 0-.774.494c-.218.277-.357.573-.377.91-.04.336.02.672.178 1.008a2.506 2.506 0 0 0 1.708 1.383c.357.08.715.08 1.052-.02.318-.039.576-.197.795-.454ZM47.06 11.268c-.476-3.894-3.554-6.959-7.466-7.433l-13.384.099L3.336 26.727a5.079 5.079 0 0 0 0 7.216l13.523 13.462a5.134 5.134 0 0 0 7.247 0l22.896-22.793.06-13.344Zm-11.22 13.66c.22.672.26 1.364.12 2.096-.139.711-.477 1.383-.973 2.016a4.326 4.326 0 0 1-1.787 1.344 4.199 4.199 0 0 1-2.085.297 3.749 3.749 0 0 1-1.906-.83 3.91 3.91 0 0 1-1.212-1.7 3.688 3.688 0 0 1-.119-2.076c.14-.732.477-1.384.973-2.017.517-.612 1.112-1.067 1.787-1.344a4.197 4.197 0 0 1 2.085-.296c.715.079 1.35.355 1.907.81a3.432 3.432 0 0 1 1.21 1.7Zm6.415-15.795a3.854 3.854 0 0 1 0 5.456 3.896 3.896 0 0 1-5.48 0 3.854 3.854 0 0 1 0-5.456 3.86 3.86 0 0 1 5.48 0ZM18.407 31.274c-.675.277-1.39.395-2.084.316-.715-.079-1.35-.356-1.947-.83a3.446 3.446 0 0 1-1.171-1.72 4.157 4.157 0 0 1-.12-2.095c.14-.732.457-1.384.954-1.997.516-.633 1.112-1.087 1.807-1.364a4.199 4.199 0 0 1 2.085-.297c.695.1 1.33.376 1.906.83a3.846 3.846 0 0 1 1.212 1.7c.238.673.277 1.365.139 2.096-.14.732-.477 1.404-.993 2.037-.517.593-1.093 1.027-1.788 1.324Zm7.268 6.76-1.906-10.99-2.522-10.774 2.145-.337 1.886 10.774L27.76 37.72l-2.085.316Zm4.21-11.979c-.04.336.02.672.178 1.008.16.336.378.633.696.89.317.257.655.415 1.012.494.358.08.715.08 1.053-.02a1.42 1.42 0 0 0 .814-.514c.218-.276.337-.573.357-.929.02-.356-.06-.692-.198-1.028a2.403 2.403 0 0 0-.675-.87 2.536 2.536 0 0 0-1.033-.514 2.267 2.267 0 0 0-1.033.02 1.59 1.59 0 0 0-.774.494c-.238.336-.377.633-.397.969Zm-10.743 1.858a2.3 2.3 0 0 0-.178-1.028 2.097 2.097 0 0 0-.656-.85 2.492 2.492 0 0 0-1.052-.514c-.378-.079-.715-.079-1.053.02a1.58 1.58 0 0 0-.794.534 1.58 1.58 0 0 0-.357.91c-.02.335.04.671.198 1.007.16.336.377.633.695.89.318.257.655.415 1.013.494.357.08.715.08 1.052-.02.338-.098.596-.257.795-.494.198-.296.317-.593.337-.949Zm14.496.02a1.59 1.59 0 0 0 .357-.93c.02-.355-.06-.691-.198-1.027a2.404 2.404 0 0 0-.675-.87 2.537 2.537 0 0 0-1.033-.514 2.267 2.267 0 0 0-1.033.02 1.59 1.59 0 0 0-.774.494c-.218.277-.357.573-.377.91-.04.336.02.672.178 1.008a2.506 2.506 0 0 0 1.708 1.383c.357.08.715.08 1.052-.02.318-.039.576-.197.795-.454Zm0 0a1.59 1.59 0 0 0 .357-.93c.02-.355-.06-.691-.198-1.027a2.404 2.404 0 0 0-.675-.87 2.537 2.537 0 0 0-1.033-.514 2.267 2.267 0 0 0-1.033.02 1.59 1.59 0 0 0-.774.494c-.218.277-.357.573-.377.91-.04.336.02.672.178 1.008a2.506 2.506 0 0 0 1.708 1.383c.357.08.715.08 1.052-.02.318-.039.576-.197.795-.454Z" fill="#fff"/></svg>