<svg width="50" height="40" fill="none" xmlns="http://www.w3.org/2000/svg"><path d="M.821 37.311V18.416s2.172-6.998 9.453-8.14v13.518s.638 1.381 2.336.331c1.386-.865 6.88-4.567 8.832-5.893a3.06 3.06 0 0 1 1.77-.515c1.496.055 3.978.663 3.394 4.033a3.956 3.956 0 0 1-1.004 2.007L12.865 37.311s-1.369 1.216-3.157 1.382c-1.788.165-7.427 0-7.427 0s-.985-.24-1.46-1.382Zm14.051 1.455 9.124-10.018h8.96l-6.259 7.163s-2.61 2.505-4.233 2.837c-1.625.368-7.592.018-7.592.018Z" fill="#fff"/><path d="M12.682 20.94V9.944h34.873v13.204s-1.059 3.186-3.467 3.426c-2.41.24-17.41 0-17.41 0l1.77-2.284c.512-.645.84-1.418.932-2.247.273-2.191-.073-6.15-6.059-6.685a4.4 4.4 0 0 0-2.755.663l-7.883 4.917ZM47.573 6.759h-34.89c0-2.929 2.354-5.286 5.255-5.286h24.38c2.901 0 5.255 2.357 5.255 5.286Z" fill="#fff"/></svg>